<svg xmlns="http://www.w3.org/2000/svg" xmlns:xlink="http://www.w3.org/1999/xlink" version="1.1" width="256" height="256" viewBox="0 0 256 256" xml:space="preserve">
<g style="stroke: none; stroke-width: 0; stroke-dasharray: none; stroke-linecap: butt; stroke-linejoin: miter; stroke-miterlimit: 10; fill: none; fill-rule: nonzero; opacity: 1;" transform="translate(1.4065934065934016 1.4065934065934016) scale(2.81 2.81)">
	<rect x="5.33" y="82.06" rx="0" ry="0" width="79.34" height="6.94" style="stroke: none; stroke-width: 1; stroke-dasharray: none; stroke-linecap: butt; stroke-linejoin: miter; stroke-miterlimit: 10; fill: rgb(252,185,132); fill-rule: nonzero; opacity: 1;" transform=" matrix(1 0 0 1 0 0) "/>
	<path d="M 84.668 90 H 5.332 c -0.552 0 -1 -0.447 -1 -1 v -6.937 c 0 -0.553 0.448 -1 1 -1 h 79.336 c 0.553 0 1 0.447 1 1 V 89 C 85.668 89.553 85.221 90 84.668 90 z M 6.332 88 h 77.336 v -4.937 H 6.332 V 88 z" style="stroke: none; stroke-width: 1; stroke-dasharray: none; stroke-linecap: butt; stroke-linejoin: miter; stroke-miterlimit: 10; fill: rgb(0,0,0); fill-rule: nonzero; opacity: 1;" transform=" matrix(1 0 0 1 0 0) " stroke-linecap="round"/>
	<path d="M 52.642 44.051 V 19.344 v -1.677 C 52.642 8.462 45.18 1 35.975 1 h 0 C 26.77 1 19.308 8.462 19.308 17.667 v 1.677 v 24.879 L 52.642 44.051 z" style="stroke: none; stroke-width: 1; stroke-dasharray: none; stroke-linecap: butt; stroke-linejoin: miter; stroke-miterlimit: 10; fill: rgb(154,71,56); fill-rule: nonzero; opacity: 1;" transform=" matrix(1 0 0 1 0 0) " stroke-linecap="round"/>
	<path d="M 48.484 17.691 v 6.63 c 0 7.32 -5.6 15.301 -12.509 15.301 h 0 c -6.909 0 -12.509 -7.981 -12.509 -15.301 v -6.63 c 7.2 -0.024 12.083 -0.991 16.411 -3.089 C 42.325 16.599 44.708 17.667 48.484 17.691 z" style="stroke: none; stroke-width: 1; stroke-dasharray: none; stroke-linecap: butt; stroke-linejoin: miter; stroke-miterlimit: 10; fill: rgb(245,184,162); fill-rule: nonzero; opacity: 1;" transform=" matrix(1 0 0 1 0 0) " stroke-linecap="round"/>
	<path d="M 43.497 36.211 l 0.04 2.259 c 0 2.459 1.907 4.567 4.532 5.009 l -12.173 9.27 l -12.173 -9.27 c 2.625 -0.442 4.532 -2.55 4.532 -5.009 l 0.039 -2.259 H 43.497 z" style="stroke: none; stroke-width: 1; stroke-dasharray: none; stroke-linecap: butt; stroke-linejoin: miter; stroke-miterlimit: 10; fill: rgb(245,184,162); fill-rule: nonzero; opacity: 1;" transform=" matrix(1 0 0 1 0 0) " stroke-linecap="round"/>
	<path d="M 48.069 43.479 l 6.782 1.142 c 3.573 0.602 6.168 3.47 6.168 6.817 v 26.158 c 0 2.467 -2 4.466 -4.466 4.466 h -2.178 H 15.239 c -2.467 0 -4.466 -2 -4.466 -4.466 V 51.439 c 0 -3.347 2.596 -6.215 6.168 -6.817 l 6.782 -1.142 l 12.173 9.27 L 48.069 43.479 z" style="stroke: none; stroke-width: 1; stroke-dasharray: none; stroke-linecap: butt; stroke-linejoin: miter; stroke-miterlimit: 10; fill: rgb(47,107,178); fill-rule: nonzero; opacity: 1;" transform=" matrix(1 0 0 1 0 0) " stroke-linecap="round"/>
	<polygon points="52.53,82.06 19.26,82.06 17.14,58.83 54.65,58.83 " style="stroke: none; stroke-width: 1; stroke-dasharray: none; stroke-linecap: butt; stroke-linejoin: miter; stroke-miterlimit: 10; fill: rgb(223,211,223); fill-rule: nonzero; opacity: 1;" transform="  matrix(1 0 0 1 0 0) "/>
	<path d="M 35.896 53.749 c -0.213 0 -0.427 -0.068 -0.606 -0.204 l -12.173 -9.27 c -0.439 -0.334 -0.524 -0.962 -0.189 -1.401 c 0.334 -0.439 0.961 -0.525 1.401 -0.189 l 11.567 8.808 l 11.568 -8.808 c 0.438 -0.336 1.066 -0.25 1.401 0.189 c 0.334 0.439 0.249 1.067 -0.19 1.401 l -12.173 9.27 C 36.323 53.681 36.109 53.749 35.896 53.749 z" style="stroke: none; stroke-width: 1; stroke-dasharray: none; stroke-linecap: butt; stroke-linejoin: miter; stroke-miterlimit: 10; fill: rgb(0,0,0); fill-rule: nonzero; opacity: 1;" transform=" matrix(1 0 0 1 0 0) " stroke-linecap="round"/>
	<path d="M 19.308 45.223 c -0.552 0 -1 -0.448 -1 -1 V 17.667 C 18.308 7.925 26.233 0 35.975 0 s 17.667 7.925 17.667 17.667 v 26.384 c 0 0.552 -0.447 1 -1 1 s -1 -0.448 -1 -1 V 17.667 C 51.643 9.028 44.614 2 35.975 2 c -8.639 0 -15.667 7.028 -15.667 15.667 v 26.556 C 20.308 44.775 19.86 45.223 19.308 45.223 z" style="stroke: none; stroke-width: 1; stroke-dasharray: none; stroke-linecap: butt; stroke-linejoin: miter; stroke-miterlimit: 10; fill: rgb(0,0,0); fill-rule: nonzero; opacity: 1;" transform=" matrix(1 0 0 1 0 0) " stroke-linecap="round"/>
	<path d="M 35.975 40.622 c -7.731 0 -13.509 -8.606 -13.509 -16.301 v -6.629 c 0 -0.551 0.446 -0.998 0.997 -1 c 6.926 -0.023 11.705 -0.917 15.978 -2.989 c 0.351 -0.169 0.768 -0.121 1.068 0.125 c 2.086 1.702 4.242 2.84 7.982 2.864 c 0.55 0.003 0.993 0.45 0.993 1 v 6.629 C 49.484 32.016 43.707 40.622 35.975 40.622 z M 24.466 18.682 v 5.639 c 0 6.613 5.027 14.301 11.509 14.301 c 6.482 0 11.509 -7.688 11.509 -14.301 v -5.66 c -2.995 -0.169 -5.328 -1.044 -7.741 -2.89 C 35.545 17.692 30.89 18.58 24.466 18.682 z" style="stroke: none; stroke-width: 1; stroke-dasharray: none; stroke-linecap: butt; stroke-linejoin: miter; stroke-miterlimit: 10; fill: rgb(0,0,0); fill-rule: nonzero; opacity: 1;" transform=" matrix(1 0 0 1 0 0) " stroke-linecap="round"/>
	<path d="M 56.553 83.063 H 15.239 c -3.014 0 -5.466 -2.452 -5.466 -5.467 V 51.438 c 0 -3.838 2.945 -7.119 7.002 -7.803 l 6.782 -1.142 c 2.143 -0.361 3.698 -2.053 3.698 -4.022 l 0.039 -2.276 c 0.01 -0.552 0.459 -0.973 1.017 -0.983 c 0.552 0.01 0.992 0.465 0.983 1.017 l -0.039 2.259 c 0 2.933 -2.257 5.454 -5.366 5.978 l -6.782 1.142 c -3.091 0.521 -5.334 2.973 -5.334 5.831 v 26.158 c 0 1.911 1.555 3.467 3.466 3.467 h 41.314 c 1.911 0 3.467 -1.556 3.467 -3.467 V 51.438 c 0 -2.857 -2.244 -5.31 -5.335 -5.831 l -6.781 -1.142 c -3.11 -0.524 -5.367 -3.045 -5.367 -5.995 l -0.04 -2.242 c -0.01 -0.552 0.43 -1.008 0.982 -1.018 c 0.006 0 0.012 0 0.018 0 c 0.544 0 0.99 0.436 1 0.982 l 0.04 2.259 c 0 1.987 1.555 3.679 3.699 4.04 l 6.781 1.142 c 4.058 0.684 7.003 3.965 7.003 7.803 v 26.158 C 62.02 80.611 59.567 83.063 56.553 83.063 z" style="stroke: none; stroke-width: 1; stroke-dasharray: none; stroke-linecap: butt; stroke-linejoin: miter; stroke-miterlimit: 10; fill: rgb(0,0,0); fill-rule: nonzero; opacity: 1;" transform=" matrix(1 0 0 1 0 0) " stroke-linecap="round"/>
	<path d="M 52.534 83.063 H 19.257 c -0.517 0 -0.949 -0.395 -0.996 -0.909 l -2.115 -23.238 c -0.025 -0.28 0.068 -0.558 0.258 -0.765 c 0.189 -0.208 0.458 -0.326 0.738 -0.326 h 37.507 c 0.281 0 0.549 0.118 0.738 0.326 c 0.189 0.207 0.283 0.484 0.258 0.765 L 53.53 82.154 C 53.483 82.669 53.052 83.063 52.534 83.063 z M 20.17 81.063 h 31.451 l 1.934 -21.238 H 18.238 L 20.17 81.063 z" style="stroke: none; stroke-width: 1; stroke-dasharray: none; stroke-linecap: butt; stroke-linejoin: miter; stroke-miterlimit: 10; fill: rgb(0,0,0); fill-rule: nonzero; opacity: 1;" transform=" matrix(1 0 0 1 0 0) " stroke-linecap="round"/>
	<path d="M 35.98 68.77 c -0.27 0 -0.52 -0.1 -0.71 -0.29 c -0.1 -0.09 -0.17 -0.199 -0.22 -0.319 c -0.05 -0.13 -0.08 -0.25 -0.08 -0.391 c 0 -0.13 0.03 -0.26 0.08 -0.38 s 0.12 -0.229 0.22 -0.32 c 0.37 -0.38 1.04 -0.38 1.41 0 c 0.1 0.091 0.17 0.2 0.22 0.32 c 0.05 0.12 0.08 0.25 0.08 0.38 c 0 0.141 -0.03 0.261 -0.08 0.391 c -0.05 0.12 -0.12 0.229 -0.22 0.319 C 36.49 68.67 36.24 68.77 35.98 68.77 z" style="stroke: none; stroke-width: 1; stroke-dasharray: none; stroke-linecap: butt; stroke-linejoin: miter; stroke-miterlimit: 10; fill: rgb(0,0,0); fill-rule: nonzero; opacity: 1;" transform=" matrix(1 0 0 1 0 0) " stroke-linecap="round"/>
	<path d="M 31.394 25.142 c -0.552 0 -1 -0.448 -1 -1 v -1.781 c 0 -0.552 0.448 -1 1 -1 s 1 0.448 1 1 v 1.781 C 32.394 24.694 31.946 25.142 31.394 25.142 z" style="stroke: none; stroke-width: 1; stroke-dasharray: none; stroke-linecap: butt; stroke-linejoin: miter; stroke-miterlimit: 10; fill: rgb(0,0,0); fill-rule: nonzero; opacity: 1;" transform=" matrix(1 0 0 1 0 0) " stroke-linecap="round"/>
	<path d="M 40.398 25.142 c -0.552 0 -1 -0.448 -1 -1 v -1.781 c 0 -0.552 0.448 -1 1 -1 s 1 0.448 1 1 v 1.781 C 41.398 24.694 40.951 25.142 40.398 25.142 z" style="stroke: none; stroke-width: 1; stroke-dasharray: none; stroke-linecap: butt; stroke-linejoin: miter; stroke-miterlimit: 10; fill: rgb(0,0,0); fill-rule: nonzero; opacity: 1;" transform=" matrix(1 0 0 1 0 0) " stroke-linecap="round"/>
	<path d="M 35.95 34.478 c -1.473 0 -2.963 -0.534 -4.431 -1.603 c -0.447 -0.325 -0.545 -0.951 -0.22 -1.397 c 0.325 -0.447 0.95 -0.545 1.397 -0.22 c 2.245 1.634 4.271 1.639 6.379 0.016 c 0.438 -0.338 1.066 -0.255 1.402 0.183 c 0.337 0.438 0.255 1.065 -0.183 1.402 C 38.892 33.938 37.43 34.478 35.95 34.478 z" style="stroke: none; stroke-width: 1; stroke-dasharray: none; stroke-linecap: butt; stroke-linejoin: miter; stroke-miterlimit: 10; fill: rgb(0,0,0); fill-rule: nonzero; opacity: 1;" transform=" matrix(1 0 0 1 0 0) " stroke-linecap="round"/>
	<path d="M 72.655 82.063 h -3.894 c -1.553 0 -2.812 -1.259 -2.812 -2.812 v -8.269 h 9.517 v 8.269 C 75.467 80.804 74.208 82.063 72.655 82.063 z" style="stroke: none; stroke-width: 1; stroke-dasharray: none; stroke-linecap: butt; stroke-linejoin: miter; stroke-miterlimit: 10; fill: rgb(223,211,223); fill-rule: nonzero; opacity: 1;" transform=" matrix(1 0 0 1 0 0) " stroke-linecap="round"/>
	<path d="M 72.655 83.063 h -3.894 c -2.103 0 -3.813 -1.71 -3.813 -3.813 v -8.269 c 0 -0.553 0.447 -1 1 -1 h 9.518 c 0.553 0 1 0.447 1 1 v 8.269 C 76.467 81.354 74.757 83.063 72.655 83.063 z M 66.949 71.982 v 7.269 c 0 0.999 0.813 1.813 1.813 1.813 h 3.894 c 0.999 0 1.812 -0.813 1.812 -1.813 v -7.269 H 66.949 z" style="stroke: none; stroke-width: 1; stroke-dasharray: none; stroke-linecap: butt; stroke-linejoin: miter; stroke-miterlimit: 10; fill: rgb(0,0,0); fill-rule: nonzero; opacity: 1;" transform=" matrix(1 0 0 1 0 0) " stroke-linecap="round"/>
	<path d="M 79.228 80.064 h -3.761 c -0.553 0 -1 -0.447 -1 -1 v -5.447 c 0 -0.553 0.447 -1 1 -1 h 3.761 c 0.553 0 1 0.447 1 1 v 5.447 C 80.228 79.617 79.78 80.064 79.228 80.064 z M 76.467 78.064 h 1.761 v -3.447 h -1.761 V 78.064 z" style="stroke: none; stroke-width: 1; stroke-dasharray: none; stroke-linecap: butt; stroke-linejoin: miter; stroke-miterlimit: 10; fill: rgb(0,0,0); fill-rule: nonzero; opacity: 1;" transform=" matrix(1 0 0 1 0 0) " stroke-linecap="round"/>
	<path d="M 68.644 68.713 c -0.199 0 -0.399 -0.06 -0.575 -0.183 c -0.451 -0.317 -0.56 -0.941 -0.241 -1.394 c 0.455 -0.646 0.312 -1.042 -0.088 -1.954 c -0.428 -0.977 -1.014 -2.313 0.076 -3.929 c 0.31 -0.457 0.93 -0.578 1.389 -0.27 c 0.458 0.31 0.578 0.931 0.27 1.389 c -0.455 0.674 -0.299 1.103 0.098 2.008 c 0.428 0.977 1.013 2.314 -0.109 3.908 C 69.268 68.565 68.958 68.713 68.644 68.713 z" style="stroke: none; stroke-width: 1; stroke-dasharray: none; stroke-linecap: butt; stroke-linejoin: miter; stroke-miterlimit: 10; fill: rgb(0,0,0); fill-rule: nonzero; opacity: 1;" transform=" matrix(1 0 0 1 0 0) " stroke-linecap="round"/>
	<path d="M 72.756 68.713 c -0.199 0 -0.399 -0.06 -0.575 -0.183 c -0.451 -0.317 -0.56 -0.941 -0.241 -1.394 c 0.455 -0.646 0.312 -1.042 -0.088 -1.954 c -0.428 -0.977 -1.014 -2.313 0.076 -3.929 c 0.309 -0.457 0.93 -0.578 1.389 -0.27 c 0.458 0.31 0.578 0.931 0.27 1.389 c -0.455 0.674 -0.299 1.103 0.098 2.008 c 0.428 0.977 1.013 2.314 -0.109 3.908 C 73.38 68.565 73.07 68.713 72.756 68.713 z" style="stroke: none; stroke-width: 1; stroke-dasharray: none; stroke-linecap: butt; stroke-linejoin: miter; stroke-miterlimit: 10; fill: rgb(0,0,0); fill-rule: nonzero; opacity: 1;" transform=" matrix(1 0 0 1 0 0) " stroke-linecap="round"/>
</g>
</svg>